<?xml version="1.0" standalone="no"?>
<!DOCTYPE svg PUBLIC "-//W3C//DTD SVG 20010904//EN"
 "http://www.w3.org/TR/2001/REC-SVG-20010904/DTD/svg10.dtd">
<svg version="1.0" xmlns="http://www.w3.org/2000/svg"
 width="720.000000pt" height="720.000000pt" viewBox="0 0 720.000000 720.000000"
 preserveAspectRatio="xMidYMid meet">
<metadata>
Created by potrace 1.14, written by Peter Selinger 2001-2017
</metadata>
<g transform="translate(0.000000,720.000000) scale(0.100000,-0.100000)"
fill="#000000" stroke="none">
<path d="M1170 6003 c0 -18 -320 -19 -338 -1 -9 9 -13 7 -18 -6 -9 -24 12 -44
28 -28 8 8 48 12 118 12 l105 -1 -71 -23 c-86 -28 -143 -58 -209 -111 -115
-91 -199 -210 -235 -332 -7 -24 -16 -43 -19 -43 -3 0 -3 48 0 107 3 60 3 111
0 115 -3 4 -13 3 -20 -2 -11 -6 -12 -12 -4 -22 5 -7 9 -61 9 -125 -1 -66 2
-109 8 -106 5 4 6 0 0 -8 -4 -8 -9 -32 -9 -54 0 -26 -4 -39 -13 -38 -8 2 -12
-9 -12 -32 0 -24 5 -35 15 -35 13 0 15 -194 12 -1677 -2 -1511 -4 -1678 -18
-1677 -19 1 -13 -53 8 -75 9 -8 13 -26 11 -43 -3 -16 -1 -31 4 -34 5 -3 5 -10
1 -17 -3 -6 -7 -58 -8 -116 -1 -58 -5 -114 -9 -124 -5 -10 -4 -17 3 -17 6 0
14 -1 18 -2 4 -2 7 53 6 122 -1 69 0 116 3 105 54 -226 236 -418 469 -496 l50
-16 -100 0 c-55 0 -108 4 -118 9 -13 6 -19 4 -23 -7 -8 -20 10 -42 20 -26 10
16 333 15 338 -1 6 -17 68 -20 68 -2 0 12 334 14 2360 14 1941 -1 2360 -3
2360 -14 0 -16 59 -14 69 3 5 8 58 10 184 9 132 -2 177 0 177 9 0 17 -19 26
-33 15 -7 -5 -59 -10 -117 -11 l-105 0 58 18 c32 11 72 26 90 34 18 9 36 16
41 15 5 0 12 4 15 9 3 5 22 20 42 34 124 83 238 236 270 363 6 26 14 45 17 42
2 -3 4 -37 3 -76 -1 -38 2 -70 6 -70 12 0 10 154 -2 162 -7 5 -6 8 1 8 6 0 9
21 8 51 -1 35 3 52 12 56 19 7 18 63 -1 63 -13 0 -15 193 -15 1675 0 1480 2
1676 15 1681 19 8 20 60 1 67 -10 4 -14 19 -12 51 1 25 -2 46 -6 46 -5 0 -4 9
2 20 8 16 8 20 -4 20 -8 0 -17 14 -22 33 -26 120 -153 288 -284 374 -30 20
-57 39 -60 42 -3 3 -9 7 -15 8 -5 1 -30 10 -55 19 -25 9 -58 20 -75 25 -19 5
10 7 80 6 61 -1 117 -5 125 -7 10 -3 15 2 15 15 0 13 -5 18 -15 15 -8 -3 -90
-6 -183 -8 -133 -2 -167 0 -165 10 2 8 -9 13 -29 14 -22 1 -33 -4 -33 -12 0
-21 -4715 -21 -4723 0 -7 19 -67 18 -67 -1z m642 -378 c-3 -6 0 -6 9 1 20 16
2601 16 2592 0 -5 -8 -2 -8 8 0 10 8 227 11 772 11 627 0 760 -2 764 -14 3 -7
20 -13 40 -13 23 0 32 4 27 12 -11 17 63 5 116 -20 60 -27 127 -95 156 -157
29 -63 37 -115 19 -115 -9 0 -13 -11 -11 -32 1 -20 6 -32 14 -31 9 2 12 -348
12 -1677 0 -1456 -2 -1680 -14 -1680 -18 0 -17 -47 1 -58 29 -18 -19 -132 -84
-203 -55 -59 -203 -124 -203 -89 0 6 -16 10 -35 10 -21 0 -35 -5 -35 -12 0
-10 -311 -13 -1523 -13 -837 0 -1527 4 -1534 8 -6 4 -14 4 -16 0 -3 -5 -373
-8 -823 -8 -640 0 -818 3 -822 13 -5 15 -72 16 -72 1 0 -8 -12 -10 -35 -6
-117 19 -238 143 -260 265 -4 23 -1 32 8 32 8 0 13 13 14 34 1 26 -3 33 -13
29 -12 -4 -14 240 -14 1676 0 1403 2 1681 13 1681 9 0 14 12 15 30 0 20 -4 30
-13 30 -19 0 -10 48 21 116 25 53 112 144 138 144 8 0 16 4 18 9 2 6 25 16 52
23 39 10 50 10 53 1 7 -19 73 -17 73 1 0 13 43 15 289 13 198 -1 288 -4 283
-12z"/>
<path d="M2707 4976 c-4 -9 -21 -12 -56 -10 -34 1 -49 -1 -45 -8 5 -7 2 -8 -7
-2 -21 13 -49 15 -49 4 0 -6 8 -10 18 -11 9 0 -15 -9 -55 -19 -217 -57 -419
-219 -526 -421 -39 -73 -79 -183 -79 -216 0 -13 -3 -23 -7 -23 -9 0 -5 271 4
292 9 22 -2 39 -21 31 -11 -4 -13 -12 -9 -27 10 -30 12 -386 2 -386 -4 0 -3
-8 2 -19 11 -20 5 -32 -13 -25 -18 7 -14 -60 5 -68 12 -5 15 -17 12 -52 -3
-33 -1 -46 9 -46 8 0 9 -3 3 -8 -12 -8 -14 -83 -3 -76 5 3 6 17 4 31 -3 14 -2
23 1 19 4 -4 8 -12 9 -19 12 -81 75 -223 138 -311 61 -85 172 -187 261 -239
41 -24 71 -48 67 -52 -4 -5 -2 -5 5 -1 6 3 40 -4 75 -18 35 -13 79 -29 98 -35
l35 -10 -37 2 c-21 2 -38 -1 -38 -5 0 -12 68 -10 75 2 4 6 12 7 18 3 7 -4 32
-9 57 -11 24 -2 48 -8 51 -14 11 -17 71 -18 65 -1 -4 9 4 13 27 14 60 2 82 6
110 17 16 7 35 12 42 12 16 0 135 43 175 63 108 53 255 182 320 279 21 31 41
54 45 50 5 -4 5 -2 2 4 -3 6 2 24 12 40 19 33 55 128 71 192 6 23 14 42 18 42
4 0 8 9 9 20 1 11 -4 20 -10 20 -8 0 -9 3 -1 8 6 4 11 22 11 40 -1 19 4 37 10
40 11 7 17 33 14 60 0 7 -5 10 -11 7 -10 -6 -13 17 -12 100 0 22 -5 43 -10 46
-5 3 -23 46 -39 95 -38 111 -70 171 -135 254 -115 146 -273 253 -434 296 -36
10 -68 20 -72 23 -4 3 32 5 80 3 112 -3 101 -3 147 -1 22 1 48 -2 58 -6 24
-10 46 10 29 27 -7 7 -16 8 -24 1 -7 -5 -33 -9 -58 -9 -25 1 -48 -3 -52 -9 -5
-7 -8 -7 -8 0 0 12 -170 12 -190 0 -8 -5 -11 -4 -7 2 4 6 -15 9 -53 8 -44 -1
-60 2 -60 12 0 18 -66 17 -73 -1z m3 -380 c0 -11 10 -14 35 -13 20 1 35 7 35
15 0 6 12 12 26 12 14 0 23 -3 21 -7 -3 -5 12 -8 34 -9 95 -3 252 -117 321
-234 43 -74 80 -207 59 -219 -19 -12 -23 -71 -5 -71 13 0 14 -9 9 -47 -3 -27
-10 -50 -16 -51 -5 -2 -7 -8 -3 -13 8 -14 -41 -114 -83 -168 -82 -104 -188
-166 -316 -186 -28 -5 -42 -2 -50 9 -13 16 -67 11 -67 -6 0 -26 -173 24 -240
69 -70 47 -141 126 -175 197 -42 86 -65 184 -45 196 18 11 21 57 3 64 -11 5
-13 16 -8 52 26 194 198 376 389 411 11 2 22 6 25 8 11 12 51 4 51 -9z"/>
<path d="M2257 4966 c-8 -20 6 -28 38 -20 26 6 34 20 13 21 -7 0 -20 4 -29 7
-10 5 -19 1 -22 -8z"/>
<path d="M2334 4958 c-2 -4 21 -7 51 -7 30 0 55 3 55 7 0 9 -101 9 -106 0z"/>
<path d="M2454 4958 c-3 -4 6 -8 20 -8 14 0 26 4 26 8 0 4 -9 8 -21 8 -11 0
-23 -4 -25 -8z"/>
<path d="M2515 4960 c-3 -5 1 -10 10 -10 9 0 13 5 10 10 -3 6 -8 10 -10 10 -2
0 -7 -4 -10 -10z"/>
<path d="M4375 4652 c-11 -2 -32 -8 -48 -14 -21 -8 -26 -15 -21 -31 5 -16 3
-19 -11 -13 -11 4 -22 0 -31 -11 -18 -24 -18 -83 -1 -83 10 0 14 -16 14 -54 0
-34 -4 -54 -11 -53 -6 1 -12 -13 -14 -30 -2 -19 1 -33 8 -33 6 0 10 -8 8 -17
-2 -13 3 -18 20 -17 12 0 22 -4 21 -10 -3 -27 2 -38 16 -33 8 4 17 2 20 -3 10
-16 55 -12 55 5 0 13 67 15 568 13 386 -2 566 -6 565 -13 -1 -6 14 -11 33 -12
19 0 34 3 34 8 0 5 6 8 12 6 7 -1 14 8 16 19 2 16 8 20 23 17 14 -4 19 0 19
16 0 11 3 21 8 21 4 0 7 14 7 30 1 18 -4 30 -12 30 -17 0 -18 107 -1 112 6 2
12 18 13 36 1 17 -2 29 -6 27 -4 -3 -9 5 -12 16 -4 14 -11 20 -21 16 -10 -4
-16 1 -18 16 -2 12 -9 21 -16 20 -6 -2 -12 2 -12 7 0 6 -16 10 -36 10 -26 0
-35 -4 -31 -14 4 -11 -87 -13 -563 -13 -519 0 -569 1 -572 16 -2 10 -11 15
-23 13z"/>
<path d="M3591 4591 c-9 -6 -11 -15 -6 -27 11 -26 12 -45 3 -71 -4 -13 -4 -23
1 -23 4 0 6 -22 5 -50 -2 -27 0 -50 4 -50 5 0 7 37 7 83 -1 45 2 93 7 106 10
28 -1 44 -21 32z"/>
<path d="M3593 4335 c0 -14 3 -25 6 -25 4 0 7 11 7 25 0 14 -3 25 -7 25 -3 0
-6 -11 -6 -25z"/>
<path d="M4336 3958 c3 -4 -4 -8 -16 -8 -17 0 -20 -4 -15 -22 6 -16 4 -20 -8
-15 -17 6 -41 -15 -30 -26 3 -4 1 -7 -5 -7 -7 0 -12 -15 -12 -35 0 -23 4 -34
13 -32 8 1 12 -14 13 -50 0 -37 -4 -53 -13 -53 -14 0 -18 -51 -5 -64 4 -4 7
-13 7 -19 0 -7 10 -13 22 -15 14 -2 20 -8 16 -17 -6 -16 33 -36 78 -40 19 -2
26 2 25 14 -1 14 51 16 549 16 303 1 558 -1 567 -3 10 -2 15 -8 12 -13 -7 -12
53 -11 77 1 10 6 19 19 19 29 0 14 5 18 19 14 14 -3 20 2 26 24 13 47 12 65
-2 70 -17 7 -19 114 -1 110 7 -1 12 8 11 23 -1 44 -14 70 -35 70 -14 0 -18 5
-14 16 4 11 -1 18 -14 21 -11 3 -20 8 -20 12 0 12 -55 6 -65 -7 -15 -19 -1125
-19 -1136 0 -5 7 -22 13 -38 14 -16 0 -28 -3 -25 -8z"/>
<path d="M3597 3923 c-10 -9 -9 -33 1 -33 4 0 8 9 9 20 2 21 0 24 -10 13z"/>
<path d="M1885 3763 c1 -60 -3 -114 -8 -121 -14 -18 8 -41 25 -24 8 8 8 18 2
34 -6 13 -9 67 -8 121 1 53 -1 97 -5 97 -4 0 -6 -48 -6 -107z"/>
<path d="M3593 3815 c1 -25 4 -45 7 -45 3 0 6 20 6 45 -1 25 -4 45 -8 45 -4 0
-6 -20 -5 -45z"/>
<path d="M3590 3725 c0 -8 4 -15 8 -15 5 0 9 7 9 15 0 8 -4 15 -9 15 -4 0 -8
-7 -8 -15z"/>
<path d="M3590 3678 c0 -13 -3 -33 -6 -45 -5 -17 -2 -23 9 -23 21 0 31 18 19
33 -5 7 -8 22 -7 35 1 12 -2 22 -7 22 -4 0 -8 -10 -8 -22z"/>
<path d="M4333 3275 c-21 -9 -24 -13 -22 -32 0 -5 -10 -11 -23 -14 -15 -3 -22
-11 -20 -23 2 -11 -1 -15 -7 -11 -7 4 -11 -7 -11 -29 0 -24 5 -36 14 -36 10 0
13 -13 12 -52 -2 -35 -6 -52 -14 -51 -8 2 -12 -10 -12 -32 0 -19 5 -35 10 -35
6 0 9 -3 9 -7 -4 -25 3 -34 21 -28 14 5 18 3 14 -8 -2 -7 3 -20 12 -28 22 -18
84 -20 84 -2 0 12 13 18 33 14 5 -1 256 -1 558 -1 474 0 548 -2 543 -14 -4
-11 1 -14 23 -12 48 5 83 24 77 41 -4 10 0 15 15 15 12 0 21 6 21 15 0 8 4 15
8 15 13 0 8 54 -5 63 -17 10 -17 104 -1 109 6 2 12 18 13 36 1 17 -2 29 -7 26
-4 -3 -8 5 -8 17 0 16 -5 20 -20 16 -15 -4 -20 0 -20 14 0 10 -9 23 -19 29
-24 12 -84 13 -77 1 3 -5 -2 -11 -12 -13 -9 -2 -264 -4 -567 -3 -477 1 -550 3
-549 15 1 18 -39 20 -73 5z"/>
<path d="M2255 3260 c-8 -13 3 -30 19 -30 7 0 21 7 32 16 16 13 16 15 2 10
-10 -3 -20 -1 -23 4 -8 13 -22 13 -30 0z"/>
<path d="M3200 3261 c0 -6 -36 -9 -80 -8 -111 3 -101 -10 13 -15 102 -5 109
-4 100 17 -6 16 -33 21 -33 6z"/>
<path d="M2330 3250 c0 -4 38 -7 85 -7 47 0 83 2 81 5 -8 7 -166 9 -166 2z"/>
<path d="M2912 3249 c-9 -4 13 -7 51 -7 37 1 67 3 67 7 0 8 -96 8 -118 0z"/>
<path d="M2210 3095 c0 -11 -13 -13 -60 -11 -37 2 -57 -1 -53 -7 4 -6 1 -7 -8
-1 -8 5 -21 9 -29 9 -8 0 -21 4 -28 9 -9 5 -20 2 -30 -8 -11 -10 -12 -16 -4
-16 7 0 12 -7 12 -15 0 -8 -6 -15 -12 -15 -21 0 -150 -69 -191 -102 -48 -38
-58 -31 -16 12 25 25 29 34 19 40 -17 11 -30 4 -30 -16 0 -8 -7 -26 -16 -39
-9 -13 -13 -29 -9 -34 3 -6 0 -8 -8 -5 -8 3 -18 -6 -25 -21 -6 -14 -16 -25
-22 -25 -6 0 -9 -4 -5 -9 7 -13 -16 -26 -41 -23 -17 3 -20 -2 -18 -37 1 -31
-5 -46 -32 -77 -23 -25 -31 -41 -24 -49 14 -17 -13 -99 -34 -103 -14 -3 -16
-10 -11 -30 8 -32 8 -29 6 -74 -1 -28 -5 -36 -15 -32 -12 4 -14 -2 -13 -30 1
-21 7 -36 15 -36 18 0 17 -167 -2 -186 -15 -15 -15 -24 3 -68 8 -20 16 -26 27
-22 13 5 15 2 11 -13 -3 -12 1 -22 12 -27 26 -11 90 -22 89 -15 -2 22 8 27 52
28 37 1 50 -2 50 -13 0 -9 11 -14 31 -14 41 0 69 16 69 40 0 12 5 17 14 14 8
-3 19 6 28 23 15 32 12 73 -6 73 -9 0 -12 25 -12 90 1 65 4 90 14 90 6 0 12 6
13 13 0 6 2 22 3 34 1 12 -2 21 -8 20 -13 -2 -10 57 3 88 5 11 12 28 15 38 3
10 15 17 30 17 21 0 24 4 22 30 -4 54 86 115 196 134 16 3 28 -1 32 -9 6 -17
66 -17 66 0 0 10 31 6 118 -12 64 -14 121 -29 126 -34 10 -9 -6 -7 -53 7 -19
6 -22 4 -19 -12 4 -18 14 -20 58 -11 8 1 21 6 28 10 7 5 12 4 12 -2 0 -6 7
-11 15 -11 8 0 15 6 15 13 0 8 3 8 8 2 4 -6 26 -11 50 -12 75 -1 83 -3 77 -13
-4 -6 8 -10 29 -10 19 0 36 5 38 11 2 6 33 12 69 13 36 1 71 6 79 11 9 5 11 4
6 -3 -10 -17 3 -15 20 3 17 17 59 21 49 5 -4 -6 -1 -17 5 -26 10 -11 16 -12
27 -3 11 10 11 14 -2 29 -15 16 -10 19 77 37 86 18 93 18 100 3 4 -12 15 -16
37 -12 17 2 29 9 28 15 -3 16 20 15 78 -1 47 -13 143 -66 146 -81 1 -3 3 -22
4 -41 1 -30 5 -35 23 -32 16 2 25 -5 35 -30 20 -49 30 -108 17 -108 -5 0 -10
-16 -10 -35 0 -22 5 -35 13 -35 10 0 14 -23 14 -90 1 -70 -2 -90 -13 -90 -16
0 -18 -37 -4 -75 6 -17 16 -25 27 -23 12 2 17 -3 15 -15 -2 -11 6 -21 23 -27
37 -14 75 -12 75 3 0 10 15 13 53 13 38 -1 51 -5 49 -15 -2 -11 8 -13 44 -8
47 5 66 19 57 43 -3 9 2 11 16 7 19 -5 26 4 22 30 0 4 3 7 7 7 5 0 9 14 9 30
0 18 -6 30 -14 30 -10 0 -13 22 -13 90 0 67 3 90 13 90 8 0 13 14 14 36 1 27
-2 34 -13 30 -11 -4 -14 5 -13 47 1 28 6 58 12 65 8 10 5 14 -10 18 -27 7 -58
91 -41 111 8 10 3 21 -21 43 -32 31 -33 34 -35 85 -1 24 -5 30 -24 29 -17 0
-34 16 -72 72 -28 40 -50 80 -50 88 0 20 -13 27 -30 16 -11 -7 -9 -14 14 -37
52 -52 48 -65 -7 -20 -64 52 -170 105 -247 124 l-55 13 53 -5 c42 -5 52 -3 52
9 0 19 -17 29 -32 19 -22 -14 -170 -11 -175 4 -7 18 -73 17 -73 -2 0 -10 -11
-14 -43 -12 -23 0 -48 -3 -56 -7 -9 -6 -12 -5 -8 2 5 6 0 8 -13 5 -11 -3 -27
0 -35 7 -16 14 -35 5 -35 -16 0 -11 9 -14 38 -10 20 3 3 -3 -38 -14 -41 -11
-91 -21 -111 -23 -19 -2 -40 -6 -45 -8 -19 -10 -77 -10 -83 -1 -11 19 -61 22
-68 5 -5 -12 -16 -14 -57 -9 -92 11 -207 39 -195 47 19 12 2 43 -19 33 -9 -4
-50 -9 -89 -10 -56 -1 -73 1 -73 12 0 9 -12 14 -35 14 -24 0 -35 -5 -35 -15z
m-145 -35 c-28 -12 -47 -12 -40 0 3 6 18 10 33 9 24 0 25 -1 7 -9z m368 3 c-7
-2 -21 -2 -30 0 -10 3 -4 5 12 5 17 0 24 -2 18 -5z"/>
<path d="M2966 2662 c-3 -5 1 -9 9 -9 8 0 15 4 15 9 0 4 -4 8 -9 8 -6 0 -12
-4 -15 -8z"/>
<path d="M6668 5693 c-6 -13 3 -133 10 -133 4 0 7 21 6 48 0 26 4 52 9 59 9
13 2 33 -13 33 -5 0 -10 -3 -12 -7z"/>
<path d="M6670 5529 c0 -11 4 -18 10 -14 5 3 7 12 3 20 -7 21 -13 19 -13 -6z"/>
<path d="M6670 5489 c0 -5 5 -7 10 -4 6 3 10 8 10 11 0 2 -4 4 -10 4 -5 0 -10
-5 -10 -11z"/>
<path d="M6670 1542 c0 -10 -5 -23 -10 -28 -8 -8 -6 -15 5 -24 14 -12 18 -11
25 0 5 8 4 22 -1 32 -6 10 -7 23 -4 28 3 6 1 10 -4 10 -6 0 -11 -8 -11 -18z"/>
</g>
</svg>
